<?xml version="1.0" standalone="no"?>
<!DOCTYPE svg PUBLIC "-//W3C//DTD SVG 20010904//EN"
 "http://www.w3.org/TR/2001/REC-SVG-20010904/DTD/svg10.dtd">
<svg version="1.0" xmlns="http://www.w3.org/2000/svg"
 width="300.000000pt" height="300.000000pt" viewBox="0 0 300.000000 300.000000"
 preserveAspectRatio="xMidYMid meet">
<metadata>
Created by potrace 1.11, written by Peter Selinger 2001-2013
</metadata>
<g transform="translate(0.000000,300.000000) scale(0.100000,-0.100000)"
fill="#000000" stroke="none">
<path d="M878 1728 l-3 -623 -28 -58 c-39 -79 -92 -110 -187 -109 -123 0 -188
59 -198 179 l-4 53 -180 0 -180 0 7 -67 c23 -226 155 -375 375 -427 84 -20
265 -20 349 -1 130 31 265 126 326 229 14 23 35 69 47 102 22 59 23 64 26 702
l3 642 -175 0 -175 0 -3 -622z"/>
<path d="M1380 2341 c0 -5 128 -379 285 -831 157 -452 285 -824 285 -826 0 -2
84 -3 186 -2 l187 3 282 810 c155 446 285 820 289 833 l7 22 -195 0 -194 0
-11 -32 c-6 -18 -90 -296 -187 -618 -96 -322 -176 -586 -177 -587 -1 -1 -85
277 -187 618 l-185 619 -192 0 c-110 0 -193 -4 -193 -9z"/>
</g>
</svg>
