<svg xmlns="http://www.w3.org/2000/svg" width="14" height="14" viewBox="0 0 980 980" id="header-logo"><path d="M453 0.2C453 0.2 433 2.2 433 2.2 433 2.2 409 5.4 409 5.4 378.4 10.2 348.1 18.4 319 29.1 190.5 76 88.2 174.5 36 301 21.4 336.4 10.2 376.1 4.7 414 4.7 414 0 461 0 461 0 461 0 520 0 520 0.1 537.2 5.5 574.6 9.2 592 32.1 700.3 92.3 802.2 179 871.6 224.7 908.1 275.5 936.5 331 955 367.7 967.2 399.5 974.3 438 978.2 438 978.2 459 980 459 980 459 980 519 980 519 980 536.5 980 565.4 975.6 583 972.4 641.1 961.9 698.7 939 749 908.2 798.9 877.6 840.8 840 877 794 924.1 734.1 958.9 658.1 972.4 583 972.4 583 979.1 531 979.1 531 979.1 531 980 521 980 521 980 521 980 461 980 461 980 443.4 974.5 405.7 970.8 388 952.4 301.2 910.5 219 849.9 154 805.5 106.4 751.3 68.4 692 41.7 653.1 24.2 608.3 10.8 566 4.7 566 4.7 519 0.2 519 0.2 519 0.2 453 0.2 453 0.2ZM470 42C470 42 470 97 470 97 470 97 404 91.7 404 91.7 404 91.7 349 83.4 349 83.4 349 83.4 319 77 319 77 323.3 73.9 330 71.8 335 70 335 70 363 60.6 363 60.6 397.6 50.7 434 43.7 470 42ZM671 80C666.6 82.9 660.2 83.4 655 84.3 655 84.3 624 89.2 624 89.2 624 89.2 565 95.1 565 95.1 565 95.1 555 96 555 96 555 96 535 97 535 97 535 97 511 97 511 97 511 97 511 42 511 42 548.6 45.1 584.8 50.8 621 61.7 621 61.7 651 72.2 651 72.2 651 72.2 671 80 671 80ZM470 139C470 139 470 202 470 202 470 202 447 202 447 202 431.8 202 415.9 200.7 414 221 414 221 405 222 405 222 404.4 209.4 396.5 202.2 384 202 384 202 280 202 280 202 276.9 202 274 201.9 271 202.8 256.6 207.1 257 219 257 231 257 231 257 249 257 249 257 259.3 256.1 257.6 242 263.2 242 263.2 205 279.3 205 279.3 166 298.1 129 321.3 96 349.4 96 349.4 67 377 67 377 62.7 381.4 59 386.4 54 390 54.6 383.5 56.7 377.3 58.4 371 62.5 355 68.1 339.4 74.2 324 99.5 260.8 139.6 203.7 190 157.9 205.6 143.7 222.4 130.7 240 119 244.2 116.2 256.8 107.2 261 106.5 264.4 106 275.9 110.3 280 111.4 280 111.4 324 122.6 324 122.6 347.1 127.2 370.5 131.5 394 133.8 394 133.8 420 136.2 420 136.2 420 136.2 443 138 443 138 443 138 470 139 470 139ZM832 202C832 202 736 202 736 202 719.3 202 714.1 209.7 710.8 225 710.8 225 707.3 240 707.3 240 706.8 242 706.2 244.2 703.8 244.5 701.9 244.8 694.3 242.4 692 241.7 692 241.7 667 235.2 667 235.2 641.4 229.7 600.5 221.2 575 220 573.2 208.3 565.7 202.1 554 202 554 202 511 202 511 202 511 202 511 139 511 139 511 139 546 139 546 139 546 139 566 138 566 138 566 138 576 137.1 576 137.1 603.5 135.2 630.8 132.5 658 127.8 658 127.8 707 117.5 707 117.5 711.5 116.4 725.3 111.8 729 112.6 731.8 113.2 736.5 116.7 739 118.3 739 118.3 759 132.4 759 132.4 780.4 148.4 817.2 180.6 832 202ZM362.2 244C362.2 244 362.2 248 362.2 248 362.2 248 362.2 255 362.2 255 362.2 255 362.2 264 362.2 264 362.2 264 363 276 363 276 363 276 363 351 363 351 363 351 363 526 363 526 363 526 363 573 363 573 363 573 363 599 363 599 363 623.8 355.1 655.6 342.7 677 330.2 698.7 312.5 716.7 290 728 274 736.1 256.7 739.8 239 741.1 239 741.1 230 742 230 742 230 742 221 741.1 221 741.1 189.7 738.9 157.8 730.2 135.2 706.9 123 694.3 113.1 677.5 107.3 661 103.7 650.4 99.2 631.1 99 620 99 620 163 620 163 620 164.3 647.4 175.8 677.9 202 690.2 208.2 693.1 214.2 694.9 221 695 238.3 695.2 251.2 696.4 266 685.4 290.8 666.9 296.1 636.8 298.1 608 298.1 608 299 596 299 596 299 596 299 244 299 244 299 244 362.2 244 362.2 244ZM751 244C751 244 824 244 824 244 824 244 715.6 620 715.6 620 715.6 620 690.1 708 690.1 708 690.1 708 684.7 727 684.7 727 684.7 727 681.4 734 681.4 734 681.4 734 676 735 676 735 676 735 613 735 613 735 613 735 605.5 734 605.5 734 605.5 734 602.3 727 602.3 727 602.3 727 596.9 708 596.9 708 596.9 708 571.6 620 571.6 620 571.6 620 505.4 389 505.4 389 505.4 389 464 244 464 244 464 244 528 244 528 244 530 244 533.7 243.7 535.3 245 537 246.4 537.6 249.9 538 252 538 252 541.4 267 541.4 267 541.4 267 559.2 344 559.2 344 559.2 344 573.4 405 573.4 405 573.4 405 610.4 565 610.4 565 610.4 565 618.6 601 618.6 601 620 606.6 620.8 612.7 623.3 618 627 625.7 633.4 630.6 642 631 661.9 631.8 665.1 615.5 668.6 600 668.6 600 693.4 493 693.4 493 693.4 493 716.6 393 716.6 393 716.6 393 739.9 292 739.9 292 739.9 292 751 244 751 244ZM868 251C882.3 270.6 897.9 304.1 907 327 910.4 335.5 918.2 355.6 919 364 919 364 890 339.5 890 339.5 890 339.5 850 311 850 311 850 311 861.6 271 861.6 271 861.6 271 868 251 868 251ZM447 345C434.2 345.3 417.7 350.4 405 353 405 353 405 265 405 265 405 265 423.3 264 423.3 264 423.3 264 426 270 426 270 426 270 430.3 285 430.3 285 430.3 285 447 345 447 345ZM696 288C696 288 685.4 334 685.4 334 685.4 334 673 387 673 387 673 387 628 365.8 628 365.8 628 365.8 607.9 357.5 607.9 357.5 607.9 357.5 605.1 349 605.1 349 605.1 349 601.1 332 601.1 332 601.1 332 586 265 586 265 586 265 614 268.8 614 268.8 614 268.8 676 282.4 676 282.4 676 282.4 696 288 696 288ZM257 305C257 305 257 426 257 426 257 428 257.1 431.1 256.4 432.8 255.4 435.2 251.9 438.1 250 440 250 440 235 455 235 455 217.3 472.8 202.5 493.2 188.7 514 181.5 524.8 168.1 548.3 163 560 161.7 563 156.4 575.6 154.4 577 152.6 578.3 149.1 578 147 578 147 578 77 578 77 578 64.8 578.1 59.1 582.6 55 594 52.2 588 47.9 561.8 46.7 554 46.7 554 42.9 519 42.9 519 42.9 519 42 509 42 509 42 504.9 41.7 494.4 42.5 491 43.4 487.1 46.9 480.8 48.8 477 53.9 466.8 62.2 453.3 68.9 444 98.6 402.5 133.8 371.5 177 344.6 177 344.6 226 317.8 226 317.8 233 314.3 249.9 306.3 257 305ZM873 722C871.7 718.6 871.3 704.6 870.8 700 870.8 700 865.8 664 865.8 664 860.2 631.9 849.5 599.8 836.6 570 828.9 552.4 819.7 535.3 809.6 519 806.7 514.4 796.8 501.5 796.8 497 796.8 497 801 481 801 481 801 481 810.3 449 810.3 449 810.3 449 837 356 837 356 846.5 360 870.5 380.3 879 387.9 893.5 400.7 906.8 414.8 918.8 430 922.2 434.3 934.6 450.8 936.2 455 937.2 457.7 938 469.6 938 473 938 473 938 507 938 507 938 507 936.2 530 936.2 530 932.5 567.1 924.8 603.8 912.3 639 906.1 656.5 898.9 674.6 890.2 691 890.2 691 873 722 873 722ZM920 364C920 364 920 365 920 365 920 365 919 364 919 364 919 364 920 364 920 364ZM460 387C462.2 401.5 470 415.2 470 430 470 430 470 626 470 626 470 626 470 938 470 938 411 935.3 342.5 917.7 290 890.7 272 881.5 254.8 870.9 238 859.7 220.7 848.1 204.5 835 189 821.2 184.7 817.3 172.4 806.6 170 802 168.1 798.2 167 781.5 166 776 166 776 193 781.6 193 781.6 207.9 783.8 222.9 784 238 784 256.4 784 277.9 779.9 295 773.4 309.5 768 324.8 759.5 337 750 348 741.4 357.6 732.1 366.1 721 386.9 694.2 398.5 664.5 403.1 631 404.1 624.4 405 617.7 405 611 405 611 405 526 405 526 405 526 405 398 405 398 405 398 418 394.6 418 394.6 430.1 391.5 447.8 387 460 387ZM663 432C663 432 652.1 478 652.1 478 652.1 478 644 515 644 515 644 515 636.1 483 636.1 483 636.1 483 625.7 438 625.7 438 625.7 438 619 410 619 410 628.8 411.8 653.1 426.7 663 432ZM257 497C257 528 258.8 588.3 254.3 616 252.2 628.7 248.1 649.8 233 652.5 210.2 656.7 205.3 621.9 205 606 204.9 602.5 204.2 595.3 203.2 592 202.3 588.9 200.2 586.3 200.8 583 201.3 579.4 211 562.1 213.3 558 221.8 543.1 229.9 530.7 240.1 517 245.1 510.3 250.7 502.5 257 497ZM780 556C784.6 561.7 788.9 571.3 792.3 578 800.9 595.4 809.3 618.3 814.7 637 822.2 663.1 827.1 690 829.1 717 829.1 717 830 729 830 729 830 729 830 759 830 759 830 763.6 828.9 779.3 827.3 783 825.5 787.2 813.7 799.3 810 803 796.3 816.7 782.2 829.3 767 841.4 691 902.1 606.9 930.2 511 938 511 938 511 569 511 569 513.4 573.1 515.5 582.1 516.9 587 516.9 587 525.7 618 525.7 618 525.7 618 556.6 726 556.6 726 556.6 726 563.3 749 563.3 749 566.5 760 568.2 771.4 581 775.2 584 776.1 586.9 776 590 776 590 776 697 776 697 776 700.1 776 703 776.1 706 775.2 719.1 771.3 720.8 759.2 724 748 724 748 731.1 723 731.1 723 731.1 723 765.3 605 765.3 605 765.3 605 774.4 573 774.4 573 775.8 568.2 777.6 560.1 780 556ZM113 739C113 739 113 740 113 740 113 740 112 739 112 739 112 739 113 739 113 739ZM114 740C117.3 742.3 126 748.6 127.4 752.1 128.2 754.1 128 758.7 128 761 123.9 757.5 114.3 745.3 114 740Z" class="a"/></svg>