<svg version="1" xmlns="http://www.w3.org/2000/svg" width="400" height="400" viewBox="0 0 300.000000 300.000000"><path d="M0 150v150h300V0H0v150zm136 18.2c0 81.3-.3 84.6-8.3 97.2-7.4 11.7-19.7 17.1-38.2 16.9-6 0-12.2-.6-13.7-1.2L73 280v-12.1c0-9.7.3-12 1.3-11.6 3.1 1.2 13 1.9 17.2 1.2 6.3-.9 11-5.2 13-11.8 1.3-4.3 1.5-15.7 1.5-76.4V98h30v70.2zm61.2-29.2c12.7 39.9 20.8 68.4 20.8 72.7 0 4.3 1.7 2.3 2.4-2.6 1-7.8 7.6-30.4 20.9-72.1l12.3-38.5 14.7-.3c11.4-.2 14.7 0 14.6 1 0 .7-10.7 32.8-23.8 71.3l-23.8 70h-32.7l-23.8-70c-13-38.5-23.7-70.6-23.8-71.3 0-1 3.3-1.2 14.7-1l14.7.3 12.8 40.5z"/></svg>